# xmcd
#
# Track frame offsets:
#	150
#	25135
#	36699
#	47994
#	61020
#	88427
#	100492
#	120408
#	132873
#	149444
#	170155
#	186437
#	202219
#	225483
#	243726
#	260856
#	271867
#	283277
#	300681
#
# Disc length: 4271 seconds
#
# Revision: 1
# Processed by: cddbd v1.5.1PL0 Copyright (c) Steve Scherf et al.
# Submitted via: EasyCDDAExtractor 7.0.4.1
#
DISCID=3510ad13
DTITLE=Renaud - Mes chansons préférées de moi
DYEAR=2004
DGENRE=Chanson
TTITLE0=Hexagone
TTITLE1=Amoureux de Paname
TTITLE2=Laisse béton
TTITLE3=Chanson pour Pierrot
TTITLE4=Dans mon H.L.M.
TTITLE5=Manu
TTITLE6=Dés que le vent soufflera
TTITLE7=Mistral gagnant
TTITLE8=P'tite conne
TTITLE9=Putain de camion
TTITLE10=La ballade Nord Irlandaise
TTITLE11=Marchand de cailloux
TTITLE12=La ballade de Willy Brouillard
TTITLE13=Son bleu
TTITLE14=C'est quand qu'on va où ?
TTITLE15=La médaille
TTITLE16=Je suis un voyou
TTITLE17=Manhattan-Kaboul
TTITLE18=Docteur Renaud, Mister Renard
EXTD=
EXTT0=
EXTT1=
EXTT2=
EXTT3=
EXTT4=
EXTT5=
EXTT6=
EXTT7=
EXTT8=
EXTT9=
EXTT10=
EXTT11=
EXTT12=
EXTT13=
EXTT14=
EXTT15=
EXTT16=
EXTT17=
EXTT18=
PLAYORDER=
